<mxfile host="app.diagrams.net" modified="2023-11-28T10:20:10.915Z" agent="Mozilla/5.0 (Windows NT 10.0; Win64; x64) AppleWebKit/537.36 (KHTML, like Gecko) Chrome/116.0.5845.686 YaBrowser/23.9.5.686 Yowser/2.5 Safari/537.36" etag="vcnPQPM5JcwfNi0QdThv" version="22.1.4" type="device">
  <diagram name="Страница — 1" id="aI4e5St_0Ubl9PosObGN">
    <mxGraphModel dx="659" dy="549" grid="1" gridSize="10" guides="1" tooltips="1" connect="1" arrows="1" fold="1" page="1" pageScale="1" pageWidth="827" pageHeight="1169" math="0" shadow="0">
      <root>
        <mxCell id="0" />
        <mxCell id="1" parent="0" />
        <mxCell id="kiSAQQvTdjCZ334Fq2QU-1" value="&lt;div style=&quot;text-align: justify;&quot;&gt;&lt;span style=&quot;font-size: 32px;&quot;&gt;&lt;b style=&quot;&quot;&gt;&lt;u style=&quot;&quot;&gt;&lt;font color=&quot;#00cc00&quot;&gt;Metrics&lt;/font&gt;&lt;/u&gt;&lt;/b&gt;&lt;/span&gt;&lt;/div&gt;" style="whiteSpace=wrap;html=1;aspect=fixed;fillStyle=auto;align=left;fillColor=#99CCFF;strokeColor=#82b366;" parent="1" vertex="1">
          <mxGeometry x="210" y="130" width="230" height="230" as="geometry" />
        </mxCell>
        <mxCell id="kiSAQQvTdjCZ334Fq2QU-2" value="Total work time&lt;br&gt;Status of the assembly nodes&lt;br&gt;Online status&lt;br&gt;Battery status&lt;br&gt;Location&lt;br&gt;Total app activity&lt;br&gt;Access level" style="whiteSpace=wrap;html=1;aspect=fixed;fillColor=#EA6B66;fontColor=#ffffff;strokeColor=#006EAF;" parent="1" vertex="1">
          <mxGeometry x="340" y="160" width="170" height="170" as="geometry" />
        </mxCell>
      </root>
    </mxGraphModel>
  </diagram>
</mxfile>
